<svg width="40" height="38" viewBox="0 0 40 38" fill="none" xmlns="http://www.w3.org/2000/svg">
<path d="M35 3.1665L31.6666 6.33317M31.6666 6.33317L36.6666 11.0832L30.8333 16.6248L25.8333 11.8748M31.6666 6.33317L25.8333 11.8748M18.9833 18.3823C19.8439 19.189 20.528 20.1494 20.9962 21.2083C21.4645 22.2671 21.7076 23.4035 21.7117 24.552C21.7157 25.7005 21.4806 26.8384 21.0198 27.9002C20.5591 28.962 19.8817 29.9268 19.0269 30.7389C18.172 31.551 17.1565 32.1945 16.0388 32.6322C14.9211 33.0699 13.7233 33.2933 12.5144 33.2895C11.3054 33.2856 10.1092 33.0546 8.99462 32.6098C7.88003 32.1649 6.86908 31.515 6.01997 30.6975C4.35019 29.0551 3.42624 26.8553 3.44712 24.5721C3.46801 22.2888 4.43206 20.1046 6.13163 18.49C7.83121 16.8754 10.1303 15.9596 12.5338 15.9397C14.9373 15.9199 17.2528 16.7976 18.9816 18.3839L18.9833 18.3823ZM18.9833 18.3823L25.8333 11.8748" stroke="#1E1E1E" stroke-width="2.5" stroke-linecap="round" stroke-linejoin="round"/>
</svg>
