<svg width="34" height="28" viewBox="0 0 34 28" fill="none" xmlns="http://www.w3.org/2000/svg">
<path d="M3.66683 27.3332C2.75016 27.3332 1.96544 27.0068 1.31266 26.354C0.659885 25.7012 0.333496 24.9165 0.333496 23.9998V3.99984C0.333496 3.08317 0.659885 2.29845 1.31266 1.64567C1.96544 0.992893 2.75016 0.666504 3.66683 0.666504H30.3335C31.2502 0.666504 32.0349 0.992893 32.6877 1.64567C33.3404 2.29845 33.6668 3.08317 33.6668 3.99984V23.9998C33.6668 24.9165 33.3404 25.7012 32.6877 26.354C32.0349 27.0068 31.2502 27.3332 30.3335 27.3332H3.66683ZM17.0002 15.6665L3.66683 7.33317V23.9998H30.3335V7.33317L17.0002 15.6665ZM17.0002 12.3332L30.3335 3.99984H3.66683L17.0002 12.3332ZM3.66683 7.33317V3.99984V23.9998V7.33317Z" fill="#FEF7FF"/>
</svg>
