<svg width="40" height="40" viewBox="0 0 40 40" fill="none" xmlns="http://www.w3.org/2000/svg">
<path d="M6.66683 33.3332C5.75016 33.3332 4.96544 33.0068 4.31266 32.354C3.65989 31.7012 3.3335 30.9165 3.3335 29.9998V9.99984C3.3335 9.08317 3.65989 8.29845 4.31266 7.64567C4.96544 6.99289 5.75016 6.6665 6.66683 6.6665H33.3335C34.2502 6.6665 35.0349 6.99289 35.6877 7.64567C36.3404 8.29845 36.6668 9.08317 36.6668 9.99984V29.9998C36.6668 30.9165 36.3404 31.7012 35.6877 32.354C35.0349 33.0068 34.2502 33.3332 33.3335 33.3332H6.66683ZM20.0002 21.6665L6.66683 13.3332V29.9998H33.3335V13.3332L20.0002 21.6665ZM20.0002 18.3332L33.3335 9.99984H6.66683L20.0002 18.3332ZM6.66683 13.3332V9.99984V29.9998V13.3332Z" fill="#1D1B20"/>
</svg>
